<mxfile host="app.diagrams.net" agent="Mozilla/5.0 (Windows NT 10.0; Win64; x64) AppleWebKit/537.36 (KHTML, like Gecko) Chrome/136.0.0.0 Safari/537.36" version="27.1.4">
  <diagram name="Page-1" id="twxxC1IJ-YLn0yteLI_Z">
    <mxGraphModel dx="1572" dy="2002" grid="1" gridSize="10" guides="1" tooltips="1" connect="1" arrows="1" fold="1" page="1" pageScale="1" pageWidth="850" pageHeight="1100" math="0" shadow="0">
      <root>
        <mxCell id="0" />
        <mxCell id="1" parent="0" />
        <mxCell id="M1p03IuBTUKqhwDXx4f4-66" value="" style="rounded=0;whiteSpace=wrap;html=1;" vertex="1" parent="1">
          <mxGeometry x="331.089696969697" y="229.753125" width="138.9090909090909" height="190.48437499999997" as="geometry" />
        </mxCell>
        <mxCell id="M1p03IuBTUKqhwDXx4f4-7" value="" style="group" vertex="1" connectable="0" parent="1">
          <mxGeometry x="160" y="-58" width="120" height="190" as="geometry" />
        </mxCell>
        <mxCell id="M1p03IuBTUKqhwDXx4f4-1" value="" style="rounded=0;whiteSpace=wrap;html=1;" vertex="1" parent="M1p03IuBTUKqhwDXx4f4-7">
          <mxGeometry y="47.5" width="120" height="142.5" as="geometry" />
        </mxCell>
        <mxCell id="M1p03IuBTUKqhwDXx4f4-4" value="Customer&amp;nbsp;" style="text;html=1;align=center;verticalAlign=middle;whiteSpace=wrap;rounded=0;" vertex="1" parent="M1p03IuBTUKqhwDXx4f4-7">
          <mxGeometry x="30" width="60" height="71.25" as="geometry" />
        </mxCell>
        <mxCell id="M1p03IuBTUKqhwDXx4f4-22" value="customerID,&lt;div&gt;FirstName,&lt;/div&gt;&lt;div&gt;LastName,&lt;/div&gt;&lt;div&gt;email,&lt;/div&gt;&lt;div&gt;password,&lt;/div&gt;&lt;div&gt;MobileNumber,&lt;/div&gt;&lt;div&gt;Country,&lt;/div&gt;&lt;div&gt;State,&lt;/div&gt;&lt;div&gt;createdAt&lt;/div&gt;&lt;div&gt;&lt;br&gt;&lt;/div&gt;" style="text;html=1;align=center;verticalAlign=middle;whiteSpace=wrap;rounded=0;" vertex="1" parent="M1p03IuBTUKqhwDXx4f4-7">
          <mxGeometry y="69.99777777777777" width="120" height="116.11111111111111" as="geometry" />
        </mxCell>
        <mxCell id="M1p03IuBTUKqhwDXx4f4-10" value="" style="group" vertex="1" connectable="0" parent="1">
          <mxGeometry x="580" y="240" width="125" height="170" as="geometry" />
        </mxCell>
        <mxCell id="M1p03IuBTUKqhwDXx4f4-11" value="" style="rounded=0;whiteSpace=wrap;html=1;" vertex="1" parent="M1p03IuBTUKqhwDXx4f4-10">
          <mxGeometry y="42.5" width="120" height="127.5" as="geometry" />
        </mxCell>
        <mxCell id="M1p03IuBTUKqhwDXx4f4-12" value="Inventory" style="text;html=1;align=center;verticalAlign=middle;whiteSpace=wrap;rounded=0;" vertex="1" parent="M1p03IuBTUKqhwDXx4f4-10">
          <mxGeometry x="30" width="60" height="63.75" as="geometry" />
        </mxCell>
        <mxCell id="M1p03IuBTUKqhwDXx4f4-78" style="edgeStyle=orthogonalEdgeStyle;rounded=0;orthogonalLoop=1;jettySize=auto;html=1;" edge="1" parent="M1p03IuBTUKqhwDXx4f4-10" source="M1p03IuBTUKqhwDXx4f4-44">
          <mxGeometry relative="1" as="geometry">
            <mxPoint x="-100" y="102.5" as="targetPoint" />
          </mxGeometry>
        </mxCell>
        <mxCell id="M1p03IuBTUKqhwDXx4f4-44" value="&lt;div style=&quot;line-height: 10%;&quot;&gt;&lt;p data-pm-slice=&quot;1 1 []&quot;&gt;inventoryId  &lt;br&gt;&lt;/p&gt;&lt;p&gt;productId             &lt;br&gt;&lt;/p&gt;&lt;p&gt;companyId&lt;/p&gt;&lt;p&gt;stockQuantity&lt;/p&gt;&lt;p&gt;warehouseLocation&amp;nbsp;&lt;br&gt;&lt;/p&gt;&lt;p&gt;lastRestockedAt&amp;nbsp;&lt;/p&gt;&lt;/div&gt;" style="text;html=1;align=center;verticalAlign=middle;whiteSpace=wrap;rounded=0;" vertex="1" parent="M1p03IuBTUKqhwDXx4f4-10">
          <mxGeometry y="42.5" width="125" height="120" as="geometry" />
        </mxCell>
        <mxCell id="M1p03IuBTUKqhwDXx4f4-76" style="edgeStyle=orthogonalEdgeStyle;rounded=0;orthogonalLoop=1;jettySize=auto;html=1;" edge="1" parent="1" source="M1p03IuBTUKqhwDXx4f4-26">
          <mxGeometry relative="1" as="geometry">
            <mxPoint x="405" y="190" as="targetPoint" />
          </mxGeometry>
        </mxCell>
        <mxCell id="M1p03IuBTUKqhwDXx4f4-26" value="" style="whiteSpace=wrap;html=1;aspect=fixed;" vertex="1" parent="1">
          <mxGeometry x="365" y="30" width="80" height="80" as="geometry" />
        </mxCell>
        <mxCell id="M1p03IuBTUKqhwDXx4f4-25" style="edgeStyle=orthogonalEdgeStyle;rounded=0;orthogonalLoop=1;jettySize=auto;html=1;exitX=1;exitY=0.5;exitDx=0;exitDy=0;" edge="1" parent="1" source="M1p03IuBTUKqhwDXx4f4-22" target="M1p03IuBTUKqhwDXx4f4-26">
          <mxGeometry relative="1" as="geometry">
            <mxPoint x="240" y="160" as="targetPoint" />
          </mxGeometry>
        </mxCell>
        <mxCell id="M1p03IuBTUKqhwDXx4f4-27" value="&lt;div&gt;Database&lt;/div&gt;&lt;div&gt;storage&lt;/div&gt;" style="text;html=1;align=center;verticalAlign=middle;whiteSpace=wrap;rounded=0;" vertex="1" parent="1">
          <mxGeometry x="375" y="48" width="60" height="30" as="geometry" />
        </mxCell>
        <mxCell id="M1p03IuBTUKqhwDXx4f4-51" value="" style="group" vertex="1" connectable="0" parent="1">
          <mxGeometry x="350" y="-120" width="120" height="110" as="geometry" />
        </mxCell>
        <mxCell id="M1p03IuBTUKqhwDXx4f4-52" value="" style="rounded=0;whiteSpace=wrap;html=1;" vertex="1" parent="M1p03IuBTUKqhwDXx4f4-51">
          <mxGeometry y="52.10526315789473" width="120" height="46.315789473684205" as="geometry" />
        </mxCell>
        <mxCell id="M1p03IuBTUKqhwDXx4f4-53" value="Admin" style="text;html=1;align=center;verticalAlign=middle;whiteSpace=wrap;rounded=0;" vertex="1" parent="M1p03IuBTUKqhwDXx4f4-51">
          <mxGeometry x="30" y="23.157894736842103" width="60" height="41.25" as="geometry" />
        </mxCell>
        <mxCell id="M1p03IuBTUKqhwDXx4f4-54" value="&lt;div&gt;UserName,&lt;/div&gt;&lt;div&gt;Password&lt;/div&gt;" style="text;html=1;align=center;verticalAlign=middle;whiteSpace=wrap;rounded=0;" vertex="1" parent="M1p03IuBTUKqhwDXx4f4-51">
          <mxGeometry y="40.52502923976607" width="120" height="67.22222222222221" as="geometry" />
        </mxCell>
        <mxCell id="M1p03IuBTUKqhwDXx4f4-55" value="" style="rounded=0;whiteSpace=wrap;html=1;" vertex="1" parent="1">
          <mxGeometry x="570" y="-10.5" width="120" height="200.5" as="geometry" />
        </mxCell>
        <mxCell id="M1p03IuBTUKqhwDXx4f4-63" style="edgeStyle=orthogonalEdgeStyle;rounded=0;orthogonalLoop=1;jettySize=auto;html=1;entryX=1;entryY=0.5;entryDx=0;entryDy=0;" edge="1" parent="1" source="M1p03IuBTUKqhwDXx4f4-56" target="M1p03IuBTUKqhwDXx4f4-26">
          <mxGeometry relative="1" as="geometry" />
        </mxCell>
        <mxCell id="M1p03IuBTUKqhwDXx4f4-81" style="edgeStyle=orthogonalEdgeStyle;rounded=0;orthogonalLoop=1;jettySize=auto;html=1;entryX=1;entryY=0.25;entryDx=0;entryDy=0;" edge="1" parent="1" source="M1p03IuBTUKqhwDXx4f4-56" target="M1p03IuBTUKqhwDXx4f4-36">
          <mxGeometry relative="1" as="geometry">
            <Array as="points">
              <mxPoint x="522" y="120" />
              <mxPoint x="522" y="281" />
            </Array>
          </mxGeometry>
        </mxCell>
        <mxCell id="M1p03IuBTUKqhwDXx4f4-56" value="ID,&lt;div&gt;FirstName,&lt;/div&gt;&lt;div&gt;LastName,&lt;/div&gt;&lt;div&gt;email,&lt;/div&gt;&lt;div&gt;password,&lt;/div&gt;&lt;div&gt;MobileNumber,&lt;/div&gt;&lt;div&gt;Country,&lt;/div&gt;&lt;div&gt;State,&lt;/div&gt;&lt;div&gt;CompanyName,&lt;/div&gt;&lt;div&gt;sector,&lt;/div&gt;&lt;div&gt;registrationNumber&lt;/div&gt;&lt;div&gt;empId,&lt;/div&gt;&lt;div&gt;createdAt&lt;/div&gt;&lt;div&gt;&lt;br&gt;&lt;/div&gt;&lt;div&gt;&lt;br&gt;&lt;/div&gt;" style="text;html=1;align=center;verticalAlign=middle;whiteSpace=wrap;rounded=0;" vertex="1" parent="1">
          <mxGeometry x="570" y="41" width="120" height="124" as="geometry" />
        </mxCell>
        <mxCell id="M1p03IuBTUKqhwDXx4f4-57" value="Company Manager" style="text;html=1;align=center;verticalAlign=middle;whiteSpace=wrap;rounded=0;" vertex="1" parent="1">
          <mxGeometry x="600" y="-40.5" width="60" height="30" as="geometry" />
        </mxCell>
        <mxCell id="M1p03IuBTUKqhwDXx4f4-64" style="edgeStyle=orthogonalEdgeStyle;rounded=0;orthogonalLoop=1;jettySize=auto;html=1;entryX=0.588;entryY=-0.034;entryDx=0;entryDy=0;entryPerimeter=0;" edge="1" parent="1">
          <mxGeometry relative="1" as="geometry">
            <mxPoint x="409.03999999999996" y="-12.252748538011701" as="sourcePoint" />
            <mxPoint x="411.03999999999996" y="27.279999999999973" as="targetPoint" />
          </mxGeometry>
        </mxCell>
        <mxCell id="M1p03IuBTUKqhwDXx4f4-5" value="product" style="text;html=1;align=center;verticalAlign=middle;whiteSpace=wrap;rounded=0;" vertex="1" parent="1">
          <mxGeometry x="370.5" y="198" width="55" height="31.25" as="geometry" />
        </mxCell>
        <mxCell id="M1p03IuBTUKqhwDXx4f4-3" value="" style="rounded=0;whiteSpace=wrap;html=1;" vertex="1" parent="1">
          <mxGeometry x="338" y="530.5015697110546" width="120" height="252.8928852453016" as="geometry" />
        </mxCell>
        <mxCell id="M1p03IuBTUKqhwDXx4f4-45" value="&lt;div style=&quot;line-height: 10%;&quot;&gt;&lt;p data-pm-slice=&quot;0 0 []&quot;&gt;orderId  &lt;br&gt;&lt;/p&gt;&lt;p&gt;customerID&lt;/p&gt;&lt;p&gt;orderDate      &lt;/p&gt;&lt;p&gt;status         &lt;/p&gt;&lt;p&gt;paymentMethod       &lt;/p&gt;&lt;p&gt;paymentStatus      &lt;/p&gt;&lt;p&gt;totalAmount        &lt;/p&gt;&lt;p&gt;discountAmount     &lt;/p&gt;&lt;p&gt;finalAmount&lt;/p&gt;&lt;p&gt;shippingAddress     &lt;/p&gt;&lt;p&gt;billingAddress      &lt;/p&gt;&lt;p&gt;deliveryDate         &lt;/p&gt;&lt;p&gt;trackingNumber&lt;/p&gt;&lt;p&gt;products&lt;/p&gt;&lt;p&gt;createdAt&lt;span style=&quot;background-color: transparent; color: light-dark(rgb(0, 0, 0), rgb(255, 255, 255));&quot;&gt;&amp;nbsp;&amp;nbsp;&lt;/span&gt;&lt;/p&gt;&lt;/div&gt;" style="text;html=1;align=center;verticalAlign=middle;whiteSpace=wrap;rounded=0;" vertex="1" parent="1">
          <mxGeometry x="343" y="531.9439412959541" width="110" height="250" as="geometry" />
        </mxCell>
        <mxCell id="M1p03IuBTUKqhwDXx4f4-77" style="edgeStyle=orthogonalEdgeStyle;rounded=0;orthogonalLoop=1;jettySize=auto;html=1;" edge="1" parent="1" source="M1p03IuBTUKqhwDXx4f4-36">
          <mxGeometry relative="1" as="geometry">
            <mxPoint x="570" y="330.9127205882353" as="targetPoint" />
          </mxGeometry>
        </mxCell>
        <mxCell id="M1p03IuBTUKqhwDXx4f4-36" value="&lt;div&gt;&lt;font&gt;&amp;nbsp;productId;&lt;/font&gt;&lt;/div&gt;&lt;div&gt;&lt;font&gt;&amp;nbsp;name;&lt;/font&gt;&lt;/div&gt;&lt;div&gt;&lt;font&gt;&amp;nbsp;description;&lt;/font&gt;&lt;/div&gt;&lt;div&gt;&lt;font&gt;&amp;nbsp;category;&lt;/font&gt;&lt;/div&gt;&lt;div&gt;&lt;font&gt;&amp;nbsp;brand;&lt;/font&gt;&lt;/div&gt;&lt;div&gt;&lt;font&gt;&amp;nbsp;price;&lt;/font&gt;&lt;/div&gt;&lt;div&gt;&lt;font&gt;&amp;nbsp;discount;&lt;/font&gt;&lt;/div&gt;&lt;div&gt;&lt;font&gt;&amp;nbsp;finalPrice;&lt;/font&gt;&lt;/div&gt;&lt;div&gt;&lt;span style=&quot;background-color: transparent; color: light-dark(rgb(0, 0, 0), rgb(255, 255, 255));&quot;&gt;&amp;nbsp;available;&lt;/span&gt;&lt;/div&gt;&lt;div&gt;&lt;font&gt;&amp;nbsp;createdAt;&lt;/font&gt;&lt;/div&gt;&lt;div&gt;&lt;font&gt;&amp;nbsp;updatedAt;&lt;/font&gt;&lt;/div&gt;&lt;div&gt;&lt;font&gt;Manufacturing date&lt;/font&gt;&lt;span style=&quot;background-color: transparent; color: light-dark(rgb(0, 0, 0), rgb(255, 255, 255));&quot;&gt;&amp;nbsp;&lt;/span&gt;&lt;/div&gt;&lt;div&gt;&lt;br&gt;&lt;/div&gt;" style="text;html=1;align=left;verticalAlign=middle;whiteSpace=wrap;rounded=0;" vertex="1" parent="1">
          <mxGeometry x="341.0042424242424" y="231.7564705882353" width="133.12121212121212" height="198.31249999999997" as="geometry" />
        </mxCell>
        <mxCell id="M1p03IuBTUKqhwDXx4f4-68" value="order" style="text;html=1;align=center;verticalAlign=middle;whiteSpace=wrap;rounded=0;" vertex="1" parent="1">
          <mxGeometry x="369.5" y="499" width="60" height="30" as="geometry" />
        </mxCell>
        <mxCell id="M1p03IuBTUKqhwDXx4f4-69" value="" style="rounded=0;whiteSpace=wrap;html=1;" vertex="1" parent="1">
          <mxGeometry x="110" y="228" width="100" height="112" as="geometry" />
        </mxCell>
        <mxCell id="M1p03IuBTUKqhwDXx4f4-80" style="edgeStyle=orthogonalEdgeStyle;rounded=0;orthogonalLoop=1;jettySize=auto;html=1;exitX=0.5;exitY=1;exitDx=0;exitDy=0;entryX=0.41;entryY=0.057;entryDx=0;entryDy=0;entryPerimeter=0;" edge="1" parent="1" target="M1p03IuBTUKqhwDXx4f4-75">
          <mxGeometry relative="1" as="geometry">
            <mxPoint x="159.96" y="340.0000000000002" as="sourcePoint" />
            <mxPoint x="152.46" y="419.9999999999998" as="targetPoint" />
            <Array as="points">
              <mxPoint x="160" y="420" />
            </Array>
          </mxGeometry>
        </mxCell>
        <mxCell id="M1p03IuBTUKqhwDXx4f4-82" style="edgeStyle=orthogonalEdgeStyle;rounded=0;orthogonalLoop=1;jettySize=auto;html=1;entryX=0;entryY=0.25;entryDx=0;entryDy=0;" edge="1" parent="1" source="M1p03IuBTUKqhwDXx4f4-70" target="M1p03IuBTUKqhwDXx4f4-45">
          <mxGeometry relative="1" as="geometry">
            <Array as="points">
              <mxPoint x="190" y="390" />
              <mxPoint x="272" y="390" />
              <mxPoint x="272" y="594" />
            </Array>
          </mxGeometry>
        </mxCell>
        <mxCell id="M1p03IuBTUKqhwDXx4f4-70" value="&lt;div style=&quot;line-height: 10%;&quot;&gt;&lt;p data-pm-slice=&quot;0 0 []&quot;&gt;cartId&amp;nbsp;&amp;nbsp;&lt;/p&gt;&lt;p data-pm-slice=&quot;0 0 []&quot;&gt;&amp;nbsp; &amp;nbsp; &amp;nbsp; &amp;nbsp;customerID&lt;/p&gt;&lt;p data-pm-slice=&quot;0 0 []&quot;&gt;&lt;span style=&quot;background-color: transparent; color: light-dark(rgb(0, 0, 0), rgb(255, 255, 255));&quot;&gt;createdAt&amp;nbsp;&amp;nbsp;&lt;/span&gt;&lt;/p&gt;&lt;p data-pm-slice=&quot;0 0 []&quot;&gt;updatedAt&amp;nbsp;&amp;nbsp;&lt;/p&gt;&lt;p data-pm-slice=&quot;0 0 []&quot;&gt;List&amp;lt; CartItem&amp;gt;&lt;/p&gt;&lt;/div&gt;" style="text;html=1;align=center;verticalAlign=middle;whiteSpace=wrap;rounded=0;" vertex="1" parent="1">
          <mxGeometry x="115" y="229.44" width="85" height="120.56" as="geometry" />
        </mxCell>
        <mxCell id="M1p03IuBTUKqhwDXx4f4-71" value="cart" style="text;html=1;align=center;verticalAlign=middle;whiteSpace=wrap;rounded=0;" vertex="1" parent="1">
          <mxGeometry x="140.5" y="199" width="60" height="30" as="geometry" />
        </mxCell>
        <mxCell id="M1p03IuBTUKqhwDXx4f4-73" value="" style="rounded=0;whiteSpace=wrap;html=1;" vertex="1" parent="1">
          <mxGeometry x="115" y="460" width="100" height="112" as="geometry" />
        </mxCell>
        <mxCell id="M1p03IuBTUKqhwDXx4f4-74" value="&lt;div style=&quot;line-height: 10%;&quot;&gt;&lt;p data-pm-slice=&quot;0 0 []&quot;&gt;cartItemId  &lt;br/&gt;&lt;/p&gt;&lt;p&gt;cartId   &lt;/p&gt;&lt;p&gt;productId     &lt;br/&gt;&lt;/p&gt;&lt;p&gt;productName   &lt;br/&gt;&lt;/p&gt;&lt;p&gt;quantity     &lt;br/&gt;&lt;/p&gt;&lt;p&gt;priceAtAddition    &lt;br/&gt;&lt;/p&gt;&lt;p&gt;total&lt;/p&gt;&lt;/div&gt;" style="text;html=1;align=center;verticalAlign=middle;whiteSpace=wrap;rounded=0;" vertex="1" parent="1">
          <mxGeometry x="120" y="461.44" width="85" height="120.56" as="geometry" />
        </mxCell>
        <mxCell id="M1p03IuBTUKqhwDXx4f4-75" value="cartitem" style="text;html=1;align=center;verticalAlign=middle;whiteSpace=wrap;rounded=0;" vertex="1" parent="1">
          <mxGeometry x="135" y="430" width="60" height="30" as="geometry" />
        </mxCell>
        <mxCell id="M1p03IuBTUKqhwDXx4f4-79" style="edgeStyle=orthogonalEdgeStyle;rounded=0;orthogonalLoop=1;jettySize=auto;html=1;entryX=1.067;entryY=0.402;entryDx=0;entryDy=0;entryPerimeter=0;" edge="1" parent="1" source="M1p03IuBTUKqhwDXx4f4-66" target="M1p03IuBTUKqhwDXx4f4-69">
          <mxGeometry relative="1" as="geometry" />
        </mxCell>
        <mxCell id="M1p03IuBTUKqhwDXx4f4-83" value="create product" style="text;html=1;align=center;verticalAlign=middle;whiteSpace=wrap;rounded=0;" vertex="1" parent="1">
          <mxGeometry x="530" y="210" width="60" height="30" as="geometry" />
        </mxCell>
        <mxCell id="M1p03IuBTUKqhwDXx4f4-84" style="edgeStyle=orthogonalEdgeStyle;rounded=0;orthogonalLoop=1;jettySize=auto;html=1;entryX=0;entryY=0.25;entryDx=0;entryDy=0;" edge="1" parent="1" source="M1p03IuBTUKqhwDXx4f4-22" target="M1p03IuBTUKqhwDXx4f4-36">
          <mxGeometry relative="1" as="geometry">
            <Array as="points">
              <mxPoint x="220" y="160" />
              <mxPoint x="311" y="160" />
              <mxPoint x="311" y="281" />
            </Array>
          </mxGeometry>
        </mxCell>
        <mxCell id="M1p03IuBTUKqhwDXx4f4-85" value="Search for product" style="text;html=1;align=center;verticalAlign=middle;whiteSpace=wrap;rounded=0;" vertex="1" parent="1">
          <mxGeometry x="250" y="165" width="60" height="30" as="geometry" />
        </mxCell>
        <mxCell id="M1p03IuBTUKqhwDXx4f4-86" value="Add to cart" style="text;html=1;align=center;verticalAlign=middle;whiteSpace=wrap;rounded=0;" vertex="1" parent="1">
          <mxGeometry x="250" y="330" width="60" height="30" as="geometry" />
        </mxCell>
        <mxCell id="M1p03IuBTUKqhwDXx4f4-87" value="search for availability" style="text;html=1;align=center;verticalAlign=middle;whiteSpace=wrap;rounded=0;" vertex="1" parent="1">
          <mxGeometry x="490" y="300" width="60" height="30" as="geometry" />
        </mxCell>
        <mxCell id="M1p03IuBTUKqhwDXx4f4-88" value="response" style="text;html=1;align=center;verticalAlign=middle;whiteSpace=wrap;rounded=0;" vertex="1" parent="1">
          <mxGeometry x="500" y="350" width="60" height="30" as="geometry" />
        </mxCell>
        <mxCell id="M1p03IuBTUKqhwDXx4f4-89" value="Added in cart" style="text;html=1;align=center;verticalAlign=middle;whiteSpace=wrap;rounded=0;" vertex="1" parent="1">
          <mxGeometry x="90" y="380" width="60" height="30" as="geometry" />
        </mxCell>
        <mxCell id="M1p03IuBTUKqhwDXx4f4-90" value="ordered" style="text;html=1;align=center;verticalAlign=middle;whiteSpace=wrap;rounded=0;" vertex="1" parent="1">
          <mxGeometry x="271.09000000000003" y="461.44" width="60" height="30" as="geometry" />
        </mxCell>
      </root>
    </mxGraphModel>
  </diagram>
</mxfile>
